<svg xmlns="http://www.w3.org/2000/svg" width="81.188" height="40.594" viewBox="0 0 81.188 40.594">
  <path id="Path_22" data-name="Path 22" d="M40.594,0A40.594,40.594,0,0,1,81.188,40.594H0A40.594,40.594,0,0,1,40.594,0Z" transform="translate(81.188 40.594) rotate(180)" fill="#92a8a1"/>
  <g id="left-arrow" transform="translate(-9.42 26.08) rotate(-90)">
    <g id="Group_14" data-name="Group 14" transform="translate(0 41.674)">
      <path id="Path_23" data-name="Path 23" d="M18.1,48.136l.03.007H5.3L9.333,44.1a1.06,1.06,0,0,0,0-1.49l-.628-.628a1.05,1.05,0,0,0-1.482,0L.306,48.9a1.057,1.057,0,0,0,0,1.488L7.223,57.3a1.051,1.051,0,0,0,1.482,0l.628-.628a1.039,1.039,0,0,0,.306-.741,1.008,1.008,0,0,0-.306-.727L5.252,51.138H18.118a1.087,1.087,0,0,0,1.064-1.076v-.888A1.066,1.066,0,0,0,18.1,48.136Z" transform="translate(0 -41.674)" fill="#eae7dc"/>
    </g>
  </g>
</svg>
